<svg width="482" height="248" viewBox="0 0 482 248" fill="none" xmlns="http://www.w3.org/2000/svg">
<rect width="481.916" height="248" fill="#DEF2F9"/>
<g filter="url(#filter0_d_1520_1382)">
<rect x="118.617" y="43.4766" width="252.454" height="151.862" rx="6.92422" fill="white"/>
</g>
<rect x="160" y="51" width="203" height="136" rx="3.46211" fill="#ECECEC"/>
<rect x="126" y="51" width="29" height="136" rx="3.46211" fill="#ECECEC"/>
<rect x="181" y="60" width="70" height="2" rx="1" fill="#CECECE"/>
<rect x="303" y="60" width="18" height="2" rx="1" fill="#CECECE"/>
<rect x="325" y="60" width="31" height="2" rx="1" fill="#CECECE"/>
<rect x="169" y="60" width="8" height="2" rx="1" fill="#CECECE"/>
<rect x="181" y="69" width="39" height="2" rx="1" fill="#CECECE"/>
<rect x="181" y="78" width="70" height="2" rx="1" fill="#CECECE"/>
<rect x="181" y="87" width="54" height="2" rx="1" fill="#CECECE"/>
<rect x="181" y="96" width="54" height="2" rx="1" fill="#CECECE"/>
<rect x="181" y="105" width="54" height="2" rx="1" fill="#CECECE"/>
<rect x="181" y="114" width="70" height="2" rx="1" fill="#CECECE"/>
<rect x="181" y="123" width="54" height="2" rx="1" fill="#CECECE"/>
<rect x="181" y="132" width="70" height="2" rx="1" fill="#CECECE"/>
<rect x="181" y="141" width="93" height="2" rx="1" fill="#CECECE"/>
<rect x="181" y="150" width="77" height="2" rx="1" fill="#CECECE"/>
<rect x="181" y="159" width="32" height="2" rx="1" fill="#CECECE"/>
<rect x="181" y="168" width="77" height="2" rx="1" fill="#CECECE"/>
<rect x="181" y="177" width="70" height="2" rx="1" fill="#CECECE"/>
<rect x="303" y="69" width="18" height="2" rx="1" fill="#CECECE"/>
<rect x="325" y="69" width="31" height="2" rx="1" fill="#CECECE"/>
<rect x="169" y="69" width="8" height="2" rx="1" fill="#CECECE"/>
<rect x="169" y="78" width="8" height="2" rx="1" fill="#CECECE"/>
<rect x="169" y="87" width="8" height="2" rx="1" fill="#CECECE"/>
<rect x="169" y="96" width="8" height="2" rx="1" fill="#CECECE"/>
<rect x="169" y="105" width="8" height="2" rx="1" fill="#CECECE"/>
<rect x="169" y="114" width="8" height="2" rx="1" fill="#CECECE"/>
<rect x="169" y="123" width="8" height="2" rx="1" fill="#CECECE"/>
<rect x="169" y="132" width="8" height="2" rx="1" fill="#CECECE"/>
<rect x="169" y="141" width="8" height="2" rx="1" fill="#CECECE"/>
<rect x="169" y="150" width="8" height="2" rx="1" fill="#CECECE"/>
<rect x="169" y="159" width="8" height="2" rx="1" fill="#CECECE"/>
<rect x="169" y="168" width="8" height="2" rx="1" fill="#CECECE"/>
<rect x="169" y="177" width="8" height="2" rx="1" fill="#CECECE"/>
<rect x="99.2002" y="75" width="39.2201" height="39.2201" rx="3.46211" fill="#6F787F"/>
<path d="M118.064 103.62C117.478 103.62 117.004 103.145 117.004 102.56L117.004 86.6596C117.004 86.0742 117.478 85.5996 118.064 85.5996L119.124 85.5996C119.709 85.5996 120.184 86.0742 120.184 86.6596V102.56C120.184 103.145 119.709 103.62 119.124 103.62H118.064Z" fill="white"/>
<path d="M127.604 95.1398C127.604 95.7252 127.129 96.1998 126.544 96.1998L110.644 96.1998C110.059 96.1998 109.584 95.7252 109.584 95.1398L109.584 94.0798C109.584 93.4944 110.059 93.0198 110.644 93.0198L126.544 93.0198C127.129 93.0198 127.604 93.4944 127.604 94.0798V95.1398Z" fill="white"/>
<rect x="99.2002" y="119.089" width="39.1901" height="39.1901" rx="3.46211" fill="#FFBD6F"/>
<path d="M117.801 147.777C117.003 147.775 116.206 147.703 115.42 147.563C115.146 147.5 114.907 147.334 114.752 147.1C114.597 146.866 114.538 146.581 114.588 146.305C114.637 146.029 114.791 145.783 115.018 145.617C115.244 145.45 115.527 145.377 115.806 145.412C117.988 145.798 120.237 145.526 122.263 144.631C124.289 143.736 126.001 142.258 127.178 140.387C127.256 140.266 127.356 140.161 127.474 140.078C127.593 139.996 127.726 139.937 127.867 139.906C128.008 139.875 128.153 139.871 128.296 139.896C128.438 139.921 128.574 139.973 128.695 140.051C128.817 140.128 128.922 140.228 129.005 140.346C129.088 140.464 129.147 140.596 129.178 140.737C129.21 140.877 129.213 141.022 129.188 141.164C129.163 141.305 129.11 141.441 129.033 141.562C127.84 143.459 126.184 145.023 124.22 146.11C122.256 147.197 120.048 147.771 117.801 147.777Z" fill="white"/>
<path d="M115.48 149.707L111.214 144.74L117.661 143.543L115.48 149.707Z" fill="white"/>
<path d="M120.731 130.085C121.528 130.127 122.32 130.239 123.098 130.418C123.369 130.495 123.599 130.673 123.742 130.915C123.885 131.156 123.929 131.443 123.866 131.716C123.803 131.989 123.636 132.228 123.402 132.382C123.167 132.537 122.881 132.596 122.604 132.547C120.444 132.052 118.185 132.211 116.116 133.004C114.047 133.797 112.263 135.187 110.992 136.996C110.909 137.113 110.803 137.213 110.681 137.29C110.559 137.366 110.423 137.418 110.28 137.442C110.138 137.466 109.993 137.462 109.852 137.43C109.711 137.398 109.578 137.339 109.46 137.256C109.343 137.173 109.243 137.067 109.166 136.946C109.089 136.824 109.037 136.688 109.013 136.547C108.988 136.405 108.992 136.26 109.025 136.12C109.057 135.979 109.116 135.847 109.2 135.73C110.487 133.895 112.219 132.415 114.236 131.428C116.252 130.441 118.487 129.979 120.731 130.085Z" fill="white"/>
<path d="M123.147 128.274L127.156 133.448L120.657 134.321L123.147 128.274Z" fill="white"/>
<g filter="url(#filter1_d_1520_1382)">
<rect x="262.696" y="66.7456" width="129.817" height="151.862" rx="6.92422" fill="white"/>
</g>
<rect x="274" y="83" width="21" height="14" rx="3.46211" fill="#CECECE"/>
<rect x="316" y="83" width="21" height="14" rx="3.46211" fill="#CECECE"/>
<rect x="295" y="83" width="21" height="14" rx="3.46211" fill="#ECECEC"/>
<rect x="269" y="88" width="117" height="124" rx="3.46211" fill="#ECECEC"/>
<rect x="268.819" y="72.8691" width="116.958" height="4.89877" rx="2.44938" fill="#ECECEC"/>
<rect x="297" y="103" width="73" height="2" rx="1" fill="#CECECE"/>
<rect x="285" y="103" width="8" height="2" rx="1" fill="#CECECE"/>
<rect x="297" y="112" width="73" height="2" rx="1" fill="#CECECE"/>
<rect x="285" y="112" width="8" height="2" rx="1" fill="#CECECE"/>
<rect x="297" y="121" width="73" height="2" rx="1" fill="#CECECE"/>
<rect x="285" y="121" width="8" height="2" rx="1" fill="#CECECE"/>
<rect x="297" y="130" width="73" height="2" rx="1" fill="#CECECE"/>
<rect x="285" y="130" width="8" height="2" rx="1" fill="#CECECE"/>
<rect x="297" y="139" width="73" height="2" rx="1" fill="#CECECE"/>
<rect x="297" y="181" width="73" height="2" rx="1" fill="#CECECE"/>
<rect x="297" y="190" width="73" height="2" rx="1" fill="#CECECE"/>
<rect x="326" y="150" width="30" height="2" rx="1" fill="#CECECE"/>
<rect x="326" y="160" width="30" height="2" rx="1" fill="#CECECE"/>
<rect x="326" y="170" width="30" height="2" rx="1" fill="#CECECE"/>
<rect x="285" y="139" width="8" height="2" rx="1" fill="#CECECE"/>
<rect x="285" y="181" width="8" height="2" rx="1" fill="#CECECE"/>
<rect x="285" y="190" width="8" height="2" rx="1" fill="#CECECE"/>
<path d="M222.887 184.824C221.837 183.797 220.071 184.569 220.112 186.037L220.681 206.633C220.72 208.041 222.405 208.743 223.432 207.778L224.991 206.315C225.815 205.541 227.157 205.818 227.607 206.854L230.488 213.485C230.851 214.321 231.828 214.698 232.659 214.323L235.014 213.258C235.827 212.89 236.195 211.938 235.839 211.119L232.913 204.384C232.47 203.364 233.153 202.21 234.26 202.107L236.492 201.899C237.877 201.769 238.477 200.078 237.482 199.105L222.887 184.824Z" fill="#6F787F"/>
<defs>
<filter id="filter0_d_1520_1382" x="104.769" y="33.0902" width="280.151" height="179.559" filterUnits="userSpaceOnUse" color-interpolation-filters="sRGB">
<feFlood flood-opacity="0" result="BackgroundImageFix"/>
<feColorMatrix in="SourceAlpha" type="matrix" values="0 0 0 0 0 0 0 0 0 0 0 0 0 0 0 0 0 0 127 0" result="hardAlpha"/>
<feOffset dy="3.46211"/>
<feGaussianBlur stdDeviation="6.92422"/>
<feComposite in2="hardAlpha" operator="out"/>
<feColorMatrix type="matrix" values="0 0 0 0 0 0 0 0 0 0 0 0 0 0 0 0 0 0 0.05 0"/>
<feBlend mode="normal" in2="BackgroundImageFix" result="effect1_dropShadow_1520_1382"/>
<feBlend mode="normal" in="SourceGraphic" in2="effect1_dropShadow_1520_1382" result="shape"/>
</filter>
<filter id="filter1_d_1520_1382" x="248.848" y="56.3593" width="157.514" height="179.559" filterUnits="userSpaceOnUse" color-interpolation-filters="sRGB">
<feFlood flood-opacity="0" result="BackgroundImageFix"/>
<feColorMatrix in="SourceAlpha" type="matrix" values="0 0 0 0 0 0 0 0 0 0 0 0 0 0 0 0 0 0 127 0" result="hardAlpha"/>
<feOffset dy="3.46211"/>
<feGaussianBlur stdDeviation="6.92422"/>
<feComposite in2="hardAlpha" operator="out"/>
<feColorMatrix type="matrix" values="0 0 0 0 0 0 0 0 0 0 0 0 0 0 0 0 0 0 0.05 0"/>
<feBlend mode="normal" in2="BackgroundImageFix" result="effect1_dropShadow_1520_1382"/>
<feBlend mode="normal" in="SourceGraphic" in2="effect1_dropShadow_1520_1382" result="shape"/>
</filter>
</defs>
</svg>
