<svg width="480" height="248" viewBox="0 0 480 248" fill="none" xmlns="http://www.w3.org/2000/svg">
<rect width="480" height="248" fill="#EAE8DE"/>
<g filter="url(#filter0_d_1520_844)">
<path d="M132.245 61.0231C132.245 57.4148 135.17 54.4897 138.778 54.4897H367.549C371.157 54.4897 374.082 57.4148 374.082 61.0231V185.711C374.082 189.32 371.157 192.245 367.549 192.245H138.778C135.17 192.245 132.245 189.32 132.245 185.712V61.0231Z" fill="white"/>
</g>
<rect x="138.367" y="69.1836" width="37.9592" height="116.939" rx="3.26667" fill="#EAE8DE"/>
<rect width="229.592" height="4.89796" rx="2.44898" transform="matrix(1 0 0 -1 138.367 65.5103)" fill="#9BCFA0"/>
<rect width="187.959" height="4.89796" rx="2.44898" transform="matrix(1 0 0 -1 180 74.0815)" fill="#EAE8DE"/>
<rect width="187.959" height="4.89796" rx="2.44898" transform="matrix(1 0 0 -1 180 82.0408)" fill="#EAE8DE"/>
<rect width="187.959" height="4.89796" rx="2.44898" transform="matrix(1 0 0 -1 180 90)" fill="#EAE8DE"/>
<rect width="187.959" height="4.89796" rx="2.44898" transform="matrix(1 0 0 -1 180 97.9592)" fill="#EAE8DE"/>
<rect width="187.959" height="4.89796" rx="2.44898" transform="matrix(1 0 0 -1 180 105.918)" fill="#EAE8DE"/>
<rect width="187.959" height="4.89796" rx="2.44898" transform="matrix(1 0 0 -1 180 113.877)" fill="#EAE8DE"/>
<rect width="187.959" height="4.89796" rx="2.44898" transform="matrix(1 0 0 -1 180 121.837)" fill="#EAE8DE"/>
<rect width="187.959" height="4.89796" rx="2.44898" transform="matrix(1 0 0 -1 180 129.796)" fill="#EAE8DE"/>
<rect width="187.959" height="4.89796" rx="2.44898" transform="matrix(1 0 0 -1 180 137.755)" fill="#EAE8DE"/>
<rect width="187.959" height="4.89796" rx="2.44898" transform="matrix(1 0 0 -1 180 145.714)" fill="#EAE8DE"/>
<rect width="187.959" height="4.89796" rx="2.44898" transform="matrix(1 0 0 -1 180 153.673)" fill="#EAE8DE"/>
<rect width="187.959" height="4.89796" rx="2.44898" transform="matrix(1 0 0 -1 180 161.633)" fill="#EAE8DE"/>
<rect width="187.959" height="4.89796" rx="2.44898" transform="matrix(1 0 0 -1 180 169.592)" fill="#EAE8DE"/>
<rect width="187.959" height="4.89796" rx="2.44898" transform="matrix(1 0 0 -1 180 177.551)" fill="#EAE8DE"/>
<rect width="187.959" height="4.89796" rx="2.44898" transform="matrix(1 0 0 -1 180 185.51)" fill="#EAE8DE"/>
<rect x="354.489" y="85.1021" width="38.5714" height="38.5714" rx="3.26667" fill="#9BCFA0"/>
<rect x="354.489" y="126.735" width="38.5714" height="38.5714" rx="3.26667" fill="#D8D5CA"/>
<path d="M373.376 155.16C372.791 155.16 372.316 154.685 372.316 154.1L372.316 138.202C372.316 137.617 372.791 137.143 373.376 137.143L374.436 137.143C375.021 137.143 375.496 137.617 375.496 138.202V154.1C375.496 154.685 375.021 155.16 374.436 155.16H373.376Z" fill="white"/>
<path d="M382.915 146.681C382.915 147.267 382.44 147.741 381.855 147.741L365.957 147.741C365.372 147.741 364.897 147.267 364.897 146.681L364.897 145.621C364.897 145.036 365.372 144.562 365.957 144.562L381.855 144.562C382.44 144.562 382.915 145.036 382.915 145.621V146.681Z" fill="white"/>
<path d="M374.082 108.122C377.869 108.122 380.939 105.162 380.939 101.51C380.939 97.8584 377.869 94.8979 374.082 94.8979C370.295 94.8979 367.225 97.8584 367.225 101.51C367.225 105.162 370.295 108.122 374.082 108.122Z" stroke="white" stroke-width="3" stroke-linejoin="round"/>
<path d="M361.837 114C363.305 112.166 365.168 110.686 367.288 109.668C369.407 108.651 371.73 108.123 374.082 108.123C376.434 108.123 378.756 108.651 380.876 109.668C382.995 110.686 384.859 112.166 386.327 114" stroke="white" stroke-width="3" stroke-linejoin="round"/>
<ellipse cx="126.734" cy="126.122" rx="39.7959" ry="41.0204" fill="#9BCFA0"/>
<path d="M126.879 117.613V148.213" stroke="white" stroke-width="2" stroke-linecap="round"/>
<path d="M121.438 121.353C123.252 123.506 127.966 126.521 132.318 121.353" stroke="white" stroke-width="2" stroke-linecap="round"/>
<path d="M118.719 130.873C121.439 133.952 128.511 138.262 135.039 130.873" stroke="white" stroke-width="2" stroke-linecap="round"/>
<path d="M126.879 142.093C113.279 142.093 109.879 130.76 109.879 125.093H115.999C114.866 123.393 112.939 118.905 114.299 114.553C116.112 114.1 120.079 114.213 122.119 114.893C122.685 112.513 124.159 107.345 126.879 104.353" stroke="white" stroke-width="2" stroke-linecap="round"/>
<path d="M126.878 142.093C140.478 142.093 143.878 130.759 143.878 125.093H137.758C138.891 123.393 140.818 118.905 139.458 114.553C137.645 114.099 133.678 114.213 131.638 114.893C131.071 112.513 129.598 107.345 126.878 104.353" stroke="white" stroke-width="2" stroke-linecap="round"/>
<defs>
<filter id="filter0_d_1520_844" x="119.178" y="44.6897" width="267.97" height="163.888" filterUnits="userSpaceOnUse" color-interpolation-filters="sRGB">
<feFlood flood-opacity="0" result="BackgroundImageFix"/>
<feColorMatrix in="SourceAlpha" type="matrix" values="0 0 0 0 0 0 0 0 0 0 0 0 0 0 0 0 0 0 127 0" result="hardAlpha"/>
<feOffset dy="3.26667"/>
<feGaussianBlur stdDeviation="6.53333"/>
<feComposite in2="hardAlpha" operator="out"/>
<feColorMatrix type="matrix" values="0 0 0 0 0 0 0 0 0 0 0 0 0 0 0 0 0 0 0.05 0"/>
<feBlend mode="normal" in2="BackgroundImageFix" result="effect1_dropShadow_1520_844"/>
<feBlend mode="normal" in="SourceGraphic" in2="effect1_dropShadow_1520_844" result="shape"/>
</filter>
</defs>
</svg>
