<svg width="480" height="248" viewBox="0 0 480 248" fill="none" xmlns="http://www.w3.org/2000/svg">
<rect width="480" height="248" fill="#ECECEC"/>
<ellipse cx="356.326" cy="126.735" rx="48.9796" ry="50.2041" fill="#D8D8D8"/>
<g filter="url(#filter0_d_1520_744)">
<path d="M114.49 61.0231C114.49 57.4148 117.415 54.4897 121.024 54.4897H349.794C353.402 54.4897 356.327 57.4148 356.327 61.0231V185.711C356.327 189.32 353.402 192.245 349.794 192.245H121.024C117.415 192.245 114.49 189.32 114.49 185.712V61.0231Z" fill="white"/>
</g>
<rect x="120.612" y="76.5305" width="74.0816" height="111.429" rx="3.26667" fill="#8A8BA0"/>
<rect x="198.979" y="76.5305" width="150.612" height="111.429" rx="3.26667" fill="#EDEDED"/>
<rect width="228.98" height="10.4082" rx="3.26667" transform="matrix(1 0 0 -1 120.612 72.8572)" fill="#EDEDED"/>
<rect width="34.2857" height="20.8163" rx="3.26667" transform="matrix(1 0 0 -1 206.938 105.918)" fill="#D8D8D8"/>
<rect width="96.1224" height="20.8163" rx="3.26667" transform="matrix(1 0 0 -1 244.898 105.918)" fill="#D8D8D8"/>
<rect width="96.1224" height="20.8163" rx="3.26667" transform="matrix(1 0 0 -1 244.898 130.408)" fill="#D8D8D8"/>
<rect width="96.1224" height="20.8163" rx="3.26667" transform="matrix(1 0 0 -1 244.898 154.898)" fill="#D8D8D8"/>
<rect width="96.1224" height="20.8163" rx="3.26667" transform="matrix(1 0 0 -1 244.898 179.388)" fill="#D8D8D8"/>
<rect width="34.2857" height="20.8163" rx="3.26667" transform="matrix(1 0 0 -1 206.938 130.408)" fill="#D8D8D8"/>
<rect width="34.2857" height="20.8163" rx="3.26667" transform="matrix(1 0 0 -1 206.938 154.898)" fill="#D8D8D8"/>
<rect width="34.2857" height="20.8163" rx="3.26667" transform="matrix(1 0 0 -1 206.938 179.388)" fill="#D8D8D8"/>
<rect x="132.245" y="85.7959" width="51" height="3" rx="1.5" fill="white"/>
<rect x="132.245" y="94.9182" width="51" height="3" rx="1.5" fill="white"/>
<rect x="132.245" y="104.041" width="51" height="3" rx="1.5" fill="white"/>
<rect x="132.245" y="113.163" width="51" height="3" rx="1.5" fill="white"/>
<rect x="132.245" y="122.285" width="51" height="3" rx="1.5" fill="white"/>
<rect x="132.245" y="131.408" width="27" height="3" rx="1.5" fill="white"/>
<path d="M330.437 187.11C329.388 186.083 327.622 186.855 327.662 188.323L328.232 208.914C328.271 210.322 329.956 211.024 330.983 210.059L332.541 208.596C333.365 207.823 334.706 208.1 335.157 209.136L338.037 215.765C338.4 216.601 339.377 216.978 340.208 216.603L342.562 215.539C343.376 215.171 343.743 214.218 343.387 213.399L340.462 206.666C340.019 205.647 340.702 204.492 341.809 204.389L344.039 204.181C345.425 204.052 346.024 202.36 345.03 201.387L330.437 187.11Z" fill="#8A8BA0"/>
<rect x="336.734" y="88.7754" width="38.5714" height="38.5714" rx="3.26667" fill="#8A8BA0"/>
<circle cx="354.576" cy="106.617" r="6.5457" stroke="white" stroke-width="3" stroke-linejoin="round"/>
<path d="M359.733 111.775L365.51 117.139" stroke="white" stroke-width="3" stroke-linejoin="round"/>
<rect x="96.1221" y="164.694" width="38.5714" height="38.5714" rx="3.26667" fill="#D8D8D8"/>
<path d="M115.009 193.119C114.423 193.119 113.949 192.645 113.949 192.059L113.949 176.162C113.949 175.577 114.423 175.102 115.009 175.102L116.069 175.102C116.654 175.102 117.128 175.577 117.128 176.162V192.059C117.128 192.645 116.654 193.119 116.069 193.119H115.009Z" fill="#8A8BA0"/>
<path d="M124.547 184.641C124.547 185.226 124.073 185.7 123.488 185.7L107.59 185.7C107.005 185.7 106.53 185.226 106.53 184.641L106.53 183.581C106.53 182.996 107.005 182.521 107.59 182.521L123.488 182.521C124.073 182.521 124.547 182.996 124.547 183.581V184.641Z" fill="#8A8BA0"/>
<defs>
<filter id="filter0_d_1520_744" x="101.424" y="44.6897" width="267.97" height="163.888" filterUnits="userSpaceOnUse" color-interpolation-filters="sRGB">
<feFlood flood-opacity="0" result="BackgroundImageFix"/>
<feColorMatrix in="SourceAlpha" type="matrix" values="0 0 0 0 0 0 0 0 0 0 0 0 0 0 0 0 0 0 127 0" result="hardAlpha"/>
<feOffset dy="3.26667"/>
<feGaussianBlur stdDeviation="6.53333"/>
<feComposite in2="hardAlpha" operator="out"/>
<feColorMatrix type="matrix" values="0 0 0 0 0 0 0 0 0 0 0 0 0 0 0 0 0 0 0.05 0"/>
<feBlend mode="normal" in2="BackgroundImageFix" result="effect1_dropShadow_1520_744"/>
<feBlend mode="normal" in="SourceGraphic" in2="effect1_dropShadow_1520_744" result="shape"/>
</filter>
</defs>
</svg>
