<svg width="480" height="248" viewBox="0 0 480 248" fill="none" xmlns="http://www.w3.org/2000/svg">
<rect width="480" height="248" fill="#F0F7FF"/>
<path d="M331.98 219.347C367.315 219.347 395.959 190.839 395.959 155.673C395.959 120.508 367.315 92 331.98 92C296.645 92 268 120.508 268 155.673C268 190.839 296.645 219.347 331.98 219.347Z" fill="#D4E5FB"/>
<g filter="url(#filter0_d_1520_1572)">
<path d="M108.367 61.0231C108.367 57.4148 111.293 54.4897 114.901 54.4897H343.671C347.279 54.4897 350.204 57.4148 350.204 61.0231V185.711C350.204 189.32 347.279 192.245 343.671 192.245H114.901C111.293 192.245 108.367 189.32 108.367 185.712V61.0231Z" fill="white"/>
</g>
<rect x="114.49" y="74.6938" width="74.0816" height="111.429" rx="3.26667" fill="#F0F7FF"/>
<rect x="192.857" y="74.6938" width="150.612" height="111.429" rx="3.26667" fill="#FAFAFA"/>
<rect x="215" y="95.3472" width="69" height="2" rx="1" fill="#ECECEC"/>
<rect x="215" y="105.347" width="69" height="2" rx="1" fill="#ECECEC"/>
<rect x="215" y="115.347" width="69" height="2" rx="1" fill="#ECECEC"/>
<rect x="215" y="124.347" width="69" height="2" rx="1" fill="#ECECEC"/>
<rect x="215" y="134.347" width="69" height="2" rx="1" fill="#ECECEC"/>
<rect x="215" y="144.347" width="69" height="2" rx="1" fill="#ECECEC"/>
<rect x="215" y="154.347" width="69" height="2" rx="1" fill="#ECECEC"/>
<rect x="215" y="164.347" width="69" height="2" rx="1" fill="#ECECEC"/>
<rect x="298" y="95.3472" width="20" height="2" rx="1" fill="#ECECEC"/>
<rect x="320" y="95.3472" width="7" height="2" rx="1" fill="#ECECEC"/>
<rect x="329" y="95.3472" width="7" height="2" rx="1" fill="#ECECEC"/>
<rect x="298" y="105.347" width="20" height="2" rx="1" fill="#ECECEC"/>
<rect x="320" y="105.347" width="7" height="2" rx="1" fill="#ECECEC"/>
<rect x="329" y="105.347" width="7" height="2" rx="1" fill="#ECECEC"/>
<rect x="298" y="115.347" width="20" height="2" rx="1" fill="#ECECEC"/>
<rect x="320" y="115.347" width="7" height="2" rx="1" fill="#ECECEC"/>
<rect x="329" y="115.347" width="7" height="2" rx="1" fill="#ECECEC"/>
<rect x="298" y="124.347" width="20" height="2" rx="1" fill="#ECECEC"/>
<rect x="320" y="124.347" width="7" height="2" rx="1" fill="#ECECEC"/>
<rect x="329" y="124.347" width="7" height="2" rx="1" fill="#ECECEC"/>
<rect x="298" y="134.347" width="20" height="2" rx="1" fill="#ECECEC"/>
<rect x="320" y="134.347" width="7" height="2" rx="1" fill="#ECECEC"/>
<rect x="329" y="134.347" width="7" height="2" rx="1" fill="#ECECEC"/>
<rect x="298" y="144.347" width="20" height="2" rx="1" fill="#ECECEC"/>
<rect x="320" y="144.347" width="7" height="2" rx="1" fill="#ECECEC"/>
<rect x="329" y="144.347" width="7" height="2" rx="1" fill="#ECECEC"/>
<rect x="298" y="154.347" width="20" height="2" rx="1" fill="#ECECEC"/>
<rect x="320" y="154.347" width="7" height="2" rx="1" fill="#ECECEC"/>
<rect x="329" y="154.347" width="7" height="2" rx="1" fill="#ECECEC"/>
<rect x="298" y="164.347" width="20" height="2" rx="1" fill="#ECECEC"/>
<rect x="320" y="164.347" width="7" height="2" rx="1" fill="#ECECEC"/>
<rect x="329" y="164.347" width="7" height="2" rx="1" fill="#ECECEC"/>
<path d="M203 95.449L205.449 98.2041L209.735 93" stroke="#ECECEC" stroke-linecap="square"/>
<path d="M203 105.245L205.449 108L209.735 102.796" stroke="#ECECEC" stroke-linecap="square"/>
<path d="M203 115.041L205.449 117.796L209.735 112.592" stroke="#ECECEC" stroke-linecap="square"/>
<path d="M203 124.837L205.449 127.592L209.735 122.388" stroke="#ECECEC" stroke-linecap="square"/>
<path d="M203 134.633L205.449 137.388L209.735 132.184" stroke="#ECECEC" stroke-linecap="square"/>
<path d="M203 144.429L205.449 147.184L209.735 141.98" stroke="#ECECEC" stroke-linecap="square"/>
<path d="M203 154.225L205.449 156.98L209.735 151.776" stroke="#ECECEC" stroke-linecap="square"/>
<path d="M203 164.021L205.449 166.776L209.735 161.572" stroke="#ECECEC" stroke-linecap="square"/>
<rect x="203" y="82" width="53" height="2" rx="1" fill="#89ACE5"/>
<rect x="125" y="84" width="53" height="2" rx="1" fill="#D4E5FB"/>
<rect x="141" y="92" width="37" height="2" rx="1" fill="#D4E5FB"/>
<rect x="141" y="100" width="37" height="2" rx="1" fill="#D4E5FB"/>
<rect x="141" y="108" width="37" height="2" rx="1" fill="#D4E5FB"/>
<rect x="141" y="116" width="37" height="2" rx="1" fill="#D4E5FB"/>
<rect x="125" y="131" width="53" height="2" rx="1" fill="#D4E5FB"/>
<rect x="141" y="139" width="37" height="2" rx="1" fill="#D4E5FB"/>
<rect x="141" y="147" width="37" height="2" rx="1" fill="#D4E5FB"/>
<rect x="141" y="155" width="37" height="2" rx="1" fill="#D4E5FB"/>
<rect x="141" y="163" width="37" height="2" rx="1" fill="#D4E5FB"/>
<rect width="228.98" height="10.4082" rx="3.26667" transform="matrix(1 0 0 -1 114.49 70.4082)" fill="#89ACE5"/>
<path d="M320.887 177.824C319.837 176.797 318.071 177.569 318.112 179.037L318.681 199.628C318.72 201.037 320.405 201.738 321.432 200.774L322.99 199.311C323.814 198.537 325.156 198.814 325.606 199.851L328.486 206.48C328.849 207.316 329.826 207.693 330.657 207.317L333.011 206.253C333.825 205.885 334.192 204.933 333.837 204.114L330.911 197.38C330.468 196.361 331.151 195.206 332.258 195.103L334.488 194.895C335.874 194.766 336.474 193.075 335.479 192.102L320.887 177.824Z" fill="#89ACE5"/>
<rect x="372.245" y="126.123" width="38.5714" height="38.5714" rx="3.26667" fill="#89ACE5"/>
<path d="M401.017 145.528C401.017 145.896 400.543 146.195 399.957 146.195L384.06 146.195C383.475 146.195 383 145.896 383 145.528L383 144.861C383 144.493 383.475 144.195 384.06 144.195L399.957 144.195C400.543 144.195 401.017 144.493 401.017 144.861V145.528Z" fill="white"/>
<path d="M401.017 139.333C401.017 139.702 400.543 140 399.957 140L384.06 140C383.475 140 383 139.702 383 139.333L383 138.667C383 138.298 383.475 138 384.06 138L399.957 138C400.543 138 401.017 138.298 401.017 138.667V139.333Z" fill="white"/>
<path d="M401.017 152.191C401.017 152.559 400.543 152.857 399.957 152.857L384.06 152.857C383.475 152.857 383 152.559 383 152.191L383 151.524C383 151.156 383.475 150.857 384.06 150.857L399.957 150.857C400.543 150.857 401.017 151.156 401.017 151.524V152.191Z" fill="white"/>
<rect x="67" y="102" width="66.7347" height="50.8163" rx="3.26667" fill="#89ACE5"/>
<path d="M109.627 130.325C109.398 130.324 109.172 130.271 108.967 130.168C108.762 130.066 108.584 129.917 108.446 129.734L107.73 128.756C107.688 128.701 107.634 128.657 107.573 128.627C107.511 128.596 107.443 128.581 107.375 128.581H98.6269C98.114 128.579 97.6225 128.375 97.2599 128.012C96.8972 127.649 96.6928 127.158 96.6914 126.645V115.568C96.6928 115.055 96.8972 114.564 97.2599 114.201C97.6225 113.839 98.114 113.634 98.6269 113.633H114.154C114.667 113.634 115.159 113.839 115.521 114.201C115.884 114.564 116.088 115.055 116.09 115.568V126.651C116.088 127.163 115.884 127.655 115.521 128.018C115.159 128.38 114.667 128.585 114.154 128.586H111.967C111.89 128.576 111.812 128.587 111.74 128.617C111.668 128.646 111.605 128.694 111.557 128.756L110.825 129.729C110.686 129.915 110.505 130.067 110.297 130.17C110.089 130.274 109.86 130.327 109.627 130.325ZM98.5831 115.246C98.5406 115.245 98.4983 115.253 98.4588 115.269C98.4193 115.285 98.3835 115.308 98.3534 115.339C98.3233 115.369 98.2995 115.404 98.2836 115.444C98.2676 115.483 98.2598 115.526 98.2605 115.568V126.651C98.2605 126.693 98.2689 126.734 98.2852 126.773C98.3015 126.812 98.3253 126.847 98.3553 126.877C98.3854 126.906 98.421 126.93 98.4601 126.945C98.4992 126.961 98.541 126.968 98.5831 126.968H107.331C107.649 126.969 107.962 127.044 108.247 127.186C108.531 127.328 108.779 127.534 108.971 127.788L109.594 128.619L110.223 127.788C110.415 127.534 110.663 127.328 110.947 127.186C111.232 127.044 111.545 126.969 111.863 126.968H114.05C114.134 126.968 114.215 126.934 114.275 126.875C114.334 126.815 114.367 126.735 114.367 126.651V115.568C114.368 115.526 114.36 115.484 114.345 115.445C114.329 115.406 114.306 115.371 114.276 115.34C114.247 115.31 114.212 115.287 114.173 115.27C114.134 115.254 114.092 115.246 114.05 115.246H98.5831Z" fill="white"/>
<path d="M91.2624 141.713C91.0329 141.714 90.8062 141.662 90.6003 141.561C90.3944 141.459 90.2149 141.311 90.076 141.128L89.3434 140.155C89.3024 140.099 89.2489 140.054 89.1872 140.023C89.1254 139.991 89.0572 139.975 88.988 139.975H86.8011C86.546 139.978 86.2928 139.93 86.0562 139.835C85.8196 139.739 85.6041 139.598 85.4222 139.419C85.2403 139.241 85.0956 139.028 84.9963 138.793C84.897 138.558 84.8452 138.305 84.8438 138.05V126.957C84.8452 126.444 85.0497 125.954 85.4126 125.592C85.7754 125.23 86.2668 125.027 86.7792 125.027H97.9326V126.667H86.7792C86.6951 126.667 86.6144 126.7 86.555 126.76C86.4955 126.819 86.4621 126.9 86.4621 126.984V138.05C86.4614 138.092 86.469 138.134 86.4846 138.173C86.5003 138.212 86.5235 138.248 86.553 138.278C86.5825 138.308 86.6177 138.332 86.6566 138.348C86.6954 138.364 86.7371 138.373 86.7792 138.373H88.9661C89.2842 138.374 89.5977 138.449 89.8822 138.591C90.1667 138.733 90.4145 138.939 90.6064 139.193L91.2351 140.024L91.8748 139.182C92.0666 138.928 92.3145 138.722 92.599 138.58C92.8834 138.438 93.1969 138.363 93.515 138.362H102.263C102.305 138.363 102.348 138.355 102.387 138.339C102.427 138.323 102.462 138.299 102.493 138.269C102.523 138.239 102.546 138.203 102.562 138.164C102.578 138.124 102.586 138.082 102.585 138.039V127.777H104.198V138.05C104.199 138.305 104.149 138.557 104.052 138.792C103.955 139.027 103.813 139.24 103.633 139.42C103.453 139.6 103.239 139.743 103.004 139.84C102.769 139.937 102.517 139.986 102.263 139.986H93.515C93.4458 139.986 93.3776 140.002 93.3159 140.034C93.2542 140.065 93.2006 140.11 93.1596 140.166L92.4215 141.128C92.286 141.308 92.111 141.454 91.91 141.556C91.7091 141.657 91.4875 141.711 91.2624 141.713Z" fill="white"/>
<path d="M95.9699 135.421C95.9039 135.421 95.8384 135.408 95.7774 135.383C95.7164 135.357 95.661 135.32 95.6145 135.273C95.5204 135.179 95.4675 135.051 95.4675 134.918C95.4675 134.784 95.5204 134.657 95.6145 134.562L97.714 132.457L95.6145 130.358C95.5201 130.263 95.467 130.134 95.467 130C95.467 129.866 95.5201 129.737 95.6145 129.642C95.7089 129.548 95.8367 129.495 95.9699 129.495C96.1032 129.495 96.231 129.548 96.3253 129.642L98.5724 131.889C98.7183 132.034 98.8025 132.23 98.8075 132.435C98.8043 132.642 98.7198 132.838 98.5724 132.982L96.3253 135.229C96.2827 135.284 96.2291 135.33 96.1679 135.363C96.1067 135.396 96.0392 135.415 95.9699 135.421Z" fill="white"/>
<path d="M93.1213 135.421C92.9869 135.417 92.8585 135.365 92.7604 135.273L90.5188 133.026C90.4456 132.955 90.3871 132.87 90.3468 132.776C90.3064 132.682 90.285 132.581 90.2837 132.479C90.2875 132.273 90.3719 132.077 90.5188 131.932L92.7604 129.685C92.8579 129.604 92.9823 129.562 93.1092 129.567C93.2361 129.573 93.3562 129.626 93.4461 129.716C93.5359 129.806 93.5888 129.926 93.5945 130.053C93.6001 130.18 93.5581 130.304 93.4766 130.401L91.3772 132.501L93.4766 134.606C93.5469 134.676 93.5947 134.766 93.614 134.863C93.6334 134.961 93.6234 135.062 93.5854 135.154C93.5474 135.246 93.483 135.324 93.4004 135.379C93.3178 135.435 93.2207 135.464 93.1213 135.464V135.421Z" fill="white"/>
<path d="M107.768 123.835C107.669 123.835 107.572 123.805 107.489 123.75C107.407 123.695 107.342 123.616 107.304 123.524C107.266 123.432 107.256 123.331 107.276 123.234C107.295 123.136 107.343 123.047 107.413 122.976L109.512 120.872L107.413 118.772C107.331 118.675 107.289 118.55 107.295 118.423C107.301 118.296 107.354 118.176 107.443 118.086C107.533 117.997 107.653 117.944 107.78 117.938C107.907 117.932 108.032 117.974 108.129 118.056L110.371 120.303C110.518 120.448 110.604 120.643 110.611 120.85C110.606 121.056 110.52 121.253 110.371 121.396L108.129 123.644C108.085 123.699 108.031 123.744 107.969 123.777C107.907 123.81 107.838 123.83 107.768 123.835Z" fill="white"/>
<path d="M104.92 123.835C104.854 123.835 104.788 123.822 104.727 123.797C104.666 123.772 104.611 123.734 104.564 123.687L102.317 121.457C102.17 121.313 102.086 121.116 102.082 120.91C102.087 120.704 102.171 120.508 102.317 120.363L104.564 118.116C104.659 118.022 104.788 117.969 104.922 117.97C105.056 117.97 105.184 118.024 105.278 118.119C105.372 118.214 105.425 118.342 105.424 118.476C105.424 118.61 105.37 118.738 105.275 118.832L103.176 120.932L105.275 123.037C105.328 123.108 105.36 123.192 105.37 123.281C105.379 123.369 105.365 123.458 105.329 123.539C105.293 123.62 105.236 123.69 105.164 123.742C105.093 123.794 105.008 123.826 104.92 123.835Z" fill="white"/>
<path d="M80.6557 122.391C80.5025 122.393 80.3522 122.349 80.2238 122.266C80.0487 122.151 79.9247 121.974 79.8778 121.77C79.8309 121.566 79.8648 121.352 79.9723 121.172C81.0101 119.511 82.5226 118.199 84.3141 117.406C86.1057 116.614 88.0939 116.377 90.0214 116.727C90.2234 116.774 90.3997 116.897 90.5139 117.07C90.628 117.243 90.6713 117.454 90.6349 117.658C90.5984 117.862 90.4849 118.044 90.3178 118.167C90.1507 118.29 89.9428 118.344 89.7371 118.318C88.1283 118.027 86.4693 118.223 84.9729 118.882C83.4765 119.541 82.2111 120.631 81.3392 122.014C81.2671 122.13 81.1664 122.226 81.0467 122.292C80.9271 122.358 80.7924 122.392 80.6557 122.391Z" fill="white"/>
<path d="M89.9775 115.125L93.1213 118.8L88.3701 119.685L89.9775 115.125Z" fill="white"/>
<path d="M112.848 138.597C112.259 138.595 111.672 138.542 111.093 138.438C110.891 138.391 110.714 138.268 110.6 138.095C110.486 137.922 110.443 137.712 110.479 137.507C110.516 137.303 110.629 137.121 110.796 136.998C110.963 136.875 111.171 136.821 111.377 136.847C112.985 137.133 114.643 136.931 116.136 136.269C117.629 135.606 118.891 134.513 119.758 133.129C119.816 133.039 119.89 132.962 119.977 132.901C120.064 132.84 120.162 132.796 120.266 132.773C120.37 132.75 120.477 132.748 120.582 132.766C120.687 132.784 120.787 132.823 120.877 132.88C120.966 132.937 121.044 133.012 121.105 133.099C121.166 133.186 121.209 133.284 121.232 133.388C121.256 133.492 121.258 133.599 121.24 133.704C121.221 133.809 121.182 133.909 121.125 133.998C120.246 135.402 119.026 136.559 117.578 137.363C116.131 138.167 114.503 138.592 112.848 138.597Z" fill="white"/>
<path d="M111.136 140.024L107.993 136.35L112.744 135.464L111.136 140.024Z" fill="white"/>
<rect x="326" y="64" width="11" height="2" rx="1" fill="#D4E5FB"/>
<rect x="312" y="64" width="11" height="2" rx="1" fill="#D4E5FB"/>
<rect x="120" y="64" width="5" height="2" rx="1" fill="#D4E5FB"/>
<rect x="137" y="64" width="41" height="2" rx="1" fill="#D4E5FB"/>
<rect x="303" y="64" width="6" height="2" rx="1" fill="#D4E5FB"/>
<defs>
<filter id="filter0_d_1520_1572" x="95.3008" y="44.6897" width="267.97" height="163.888" filterUnits="userSpaceOnUse" color-interpolation-filters="sRGB">
<feFlood flood-opacity="0" result="BackgroundImageFix"/>
<feColorMatrix in="SourceAlpha" type="matrix" values="0 0 0 0 0 0 0 0 0 0 0 0 0 0 0 0 0 0 127 0" result="hardAlpha"/>
<feOffset dy="3.26667"/>
<feGaussianBlur stdDeviation="6.53333"/>
<feComposite in2="hardAlpha" operator="out"/>
<feColorMatrix type="matrix" values="0 0 0 0 0 0 0 0 0 0 0 0 0 0 0 0 0 0 0.05 0"/>
<feBlend mode="normal" in2="BackgroundImageFix" result="effect1_dropShadow_1520_1572"/>
<feBlend mode="normal" in="SourceGraphic" in2="effect1_dropShadow_1520_1572" result="shape"/>
</filter>
</defs>
</svg>
